<svg width="984" height="1024" viewBox="0 0 984 1024" fill="none" xmlns="http://www.w3.org/2000/svg">
<path fill-rule="evenodd" clip-rule="evenodd" d="M449.673 602.042C530.414 598.913 618.441 590.013 683.833 630.674C749.226 671.335 757.057 748.542 788.044 812.44C822.487 883.464 903.65 951.958 874.978 1024.84C846.286 1097.77 726.583 1101.94 655.58 1149.14C580.863 1198.81 543.913 1300.48 449.673 1307.57C355.716 1314.63 288.256 1233.79 215.686 1182.22C148.323 1134.35 78.5402 1088.25 44.0856 1019.35C7.32122 945.84 -19.1498 859.884 17.7396 786.418C53.7665 714.669 148.782 683.097 230.428 648.246C299.471 618.774 372.6 605.029 449.673 602.042Z" fill="#3C3C3C"/>
<path fill-rule="evenodd" clip-rule="evenodd" d="M695.871 163.102C801.017 187.583 884.689 248.371 964.151 321.405C1048.84 399.239 1125.65 522.665 1119.79 637.491C1113.99 751.046 989.92 812.384 898.121 879.565C825.116 932.993 746.36 976.854 655.871 976.999C565.231 977.145 480.373 940.759 412.84 880.346C340.876 815.969 302.32 730.455 276.349 637.491C235.876 492.621 124.563 318.915 224.597 206.529C323.923 94.9364 550.315 129.212 695.871 163.102Z" fill="#FD8061"/>
<path fill-rule="evenodd" clip-rule="evenodd" d="M757.069 1.20853C800.426 11.038 834.928 35.4451 867.694 64.7694C902.613 96.0208 934.286 145.578 931.87 191.682C929.481 237.276 878.319 261.905 840.466 288.879C810.363 310.331 777.888 327.941 740.575 328C703.2 328.058 668.209 313.449 640.362 289.192C610.687 263.344 594.789 229.009 584.08 191.682C567.391 133.515 521.491 63.7698 562.74 18.645C603.697 -26.1609 697.049 -12.3986 757.069 1.20853Z" fill="white"/>
<path fill-rule="evenodd" clip-rule="evenodd" d="M1023.54 494.521C937.5 469.647 879.97 359.926 808.161 283.946C734.492 206 594.453 180.332 598.069 44.3362C602.236 -112.407 803.06 -109.853 822.727 -263.869C847.736 -459.723 621.361 -672.107 708.633 -821.514C786.77 -955.283 920.567 -694.696 1023.54 -607.664C1074.88 -564.275 1107.05 -490.292 1156.77 -442.767C1212.2 -389.779 1280.7 -382.237 1329.21 -315.466C1416.35 -195.52 1549.96 -86.6396 1544.94 91.5417C1540.22 259.494 1407.14 352.112 1308.28 428.521C1220.61 496.28 1120.22 522.469 1023.54 494.521Z" fill="black" stroke="white"/>
<path fill-rule="evenodd" clip-rule="evenodd" d="M695.871 163.102C801.017 187.583 884.689 248.371 964.151 321.405C1048.84 399.239 1125.65 522.665 1119.79 637.491C1113.99 751.046 989.92 812.384 898.121 879.565C825.116 932.993 746.36 976.854 655.871 976.999C565.231 977.145 480.373 940.759 412.84 880.346C340.876 815.969 302.32 730.455 276.349 637.491C235.876 492.621 124.563 318.915 224.597 206.529C323.923 94.9364 550.315 129.212 695.871 163.102Z" fill="#3C3C3C"/>
<path fill-rule="evenodd" clip-rule="evenodd" d="M695.871 163.102C801.017 187.583 884.689 248.371 964.151 321.405C1048.84 399.239 1125.65 522.665 1119.79 637.491C1113.99 751.046 989.92 812.384 898.121 879.565C825.116 932.993 746.36 976.854 655.871 976.999C565.231 977.145 480.373 940.759 412.84 880.346C340.876 815.969 302.32 730.455 276.349 637.491C235.876 492.621 124.563 318.915 224.597 206.529C323.923 94.9364 550.315 129.212 695.871 163.102Z" stroke="white"/>
<path fill-rule="evenodd" clip-rule="evenodd" d="M679.871 163.102C785.017 187.583 868.689 248.371 948.151 321.405C1032.84 399.239 1109.65 522.665 1103.79 637.491C1097.99 751.046 973.92 812.384 882.121 879.565C809.116 932.993 730.36 976.854 639.871 976.999C549.231 977.145 464.373 940.759 396.84 880.346C324.876 815.969 286.32 730.455 260.349 637.491C219.876 492.621 108.563 318.915 208.597 206.529C307.923 94.9364 534.315 129.212 679.871 163.102Z" stroke="white"/>
<path fill-rule="evenodd" clip-rule="evenodd" d="M663.871 163.102C769.017 187.583 852.689 248.371 932.151 321.405C1016.84 399.239 1093.65 522.665 1087.79 637.491C1081.99 751.046 957.92 812.384 866.121 879.565C793.116 932.993 714.36 976.854 623.871 976.999C533.231 977.145 448.373 940.759 380.84 880.346C308.876 815.969 270.32 730.455 244.349 637.491C203.876 492.621 92.5633 318.915 192.597 206.529C291.923 94.9364 518.315 129.212 663.871 163.102Z" stroke="white"/>
<path fill-rule="evenodd" clip-rule="evenodd" d="M647.871 163.102C753.017 187.583 836.689 248.371 916.151 321.405C1000.84 399.239 1077.65 522.665 1071.79 637.491C1065.99 751.046 941.92 812.384 850.121 879.565C777.116 932.993 698.36 976.854 607.871 976.999C517.231 977.145 432.373 940.759 364.84 880.346C292.876 815.969 254.32 730.455 228.349 637.491C187.876 492.621 76.5633 318.915 176.597 206.529C275.923 94.9364 502.315 129.212 647.871 163.102Z" stroke="white"/>
<path fill-rule="evenodd" clip-rule="evenodd" d="M631.871 163.102C737.017 187.583 820.689 248.371 900.151 321.405C984.835 399.239 1061.65 522.665 1055.79 637.491C1049.99 751.046 925.92 812.384 834.121 879.565C761.116 932.993 682.36 976.854 591.871 976.999C501.231 977.145 416.373 940.759 348.84 880.346C276.876 815.969 238.32 730.455 212.349 637.491C171.876 492.621 60.5633 318.915 160.597 206.529C259.923 94.9364 486.315 129.212 631.871 163.102Z" stroke="white"/>
<path fill-rule="evenodd" clip-rule="evenodd" d="M433.972 301.481C511.069 326.593 532.642 424.263 596.165 474.641C655.217 521.473 756.666 514.344 788.5 582.645C820.379 651.044 779.153 731.097 747.658 799.675C719.197 861.644 670.029 907.066 618.817 952.109C561.787 1002.27 508.996 1063.67 433.972 1075.57C352.998 1088.42 260.731 1074.48 200.947 1018.4C142.867 963.911 154.984 871.98 134.833 794.95C116.25 723.915 81.8536 658.504 87.6496 585.31C94.736 495.82 101.711 393.122 171.159 336.205C241.208 278.797 347.846 273.427 433.972 301.481Z" fill="white"/>
<g filter="url(#filter0_d_28_9)">
<path fill-rule="evenodd" clip-rule="evenodd" d="M538.219 800.014C488.083 770.858 487.541 698 450.65 652.789C416.355 610.759 344.405 601.07 332.324 547.681C320.225 494.214 360.944 443.079 393.156 398.717C422.263 358.63 463.379 333.37 505.866 308.679C553.18 281.182 599.205 245.044 653.4 247.477C711.892 250.103 774.291 273.492 807.721 322.232C840.198 369.583 818.052 433.437 820.671 491.355C823.086 544.766 837.388 596.465 822.447 647.866C804.18 710.711 784.025 782.999 727.029 813.509C669.539 844.284 594.226 832.583 538.219 800.014Z" fill="#090B0A"/>
</g>
<defs>
<filter id="filter0_d_28_9" x="326.143" y="247.36" width="507.021" height="592.074" filterUnits="userSpaceOnUse" color-interpolation-filters="sRGB">
<feFlood flood-opacity="0" result="BackgroundImageFix"/>
<feColorMatrix in="SourceAlpha" type="matrix" values="0 0 0 0 0 0 0 0 0 0 0 0 0 0 0 0 0 0 127 0" result="hardAlpha"/>
<feOffset dy="4"/>
<feGaussianBlur stdDeviation="2"/>
<feComposite in2="hardAlpha" operator="out"/>
<feColorMatrix type="matrix" values="0 0 0 0 0 0 0 0 0 0 0 0 0 0 0 0 0 0 0.25 0"/>
<feBlend mode="normal" in2="BackgroundImageFix" result="effect1_dropShadow_28_9"/>
<feBlend mode="normal" in="SourceGraphic" in2="effect1_dropShadow_28_9" result="shape"/>
</filter>
</defs>
</svg>
