<svg width="24" height="24" viewBox="0 0 24 24" fill="none" xmlns="http://www.w3.org/2000/svg">
<path fill-rule="evenodd" clip-rule="evenodd" d="M3.48366 4.50128C3.69784 4.48594 3.89791 4.60906 3.98071 4.80719C4.65474 6.41988 6.0646 7.59125 7.61457 8.40146C8.91301 9.08018 10.2693 9.48366 11.2698 9.67576C11.3709 8.53045 11.6537 7.6384 12.0833 6.96372C12.5876 6.1719 13.2745 5.71137 14.0244 5.49344C15.4431 5.08118 17.0383 5.54585 18.0854 6.0738C18.6178 6.11623 19.1448 6.09376 19.6049 6.01494C20.1007 5.93002 20.4799 5.78645 20.7092 5.62253C20.8683 5.50878 21.0791 5.49825 21.2488 5.59558C21.4185 5.6929 21.5158 5.88022 21.4979 6.07498C21.3903 7.24665 21.0416 8.08435 20.6012 8.67817C20.2507 9.15078 19.8546 9.45218 19.5085 9.64325C18.5033 15.9374 15.5662 18.9348 12.1821 20.0126C8.81153 21.0861 5.13384 20.2091 2.78583 19.0961C2.53631 18.9779 2.4299 18.6797 2.54818 18.4302C2.66646 18.1806 2.96463 18.0742 3.21416 18.1925C5.4305 19.2431 8.83541 20.029 11.8786 19.0598C14.8622 18.1095 17.6361 15.4257 18.5594 9.23744C18.5847 9.06793 18.695 8.92318 18.8518 8.8539C19.1186 8.73598 19.48 8.51127 19.798 8.08247C20.0115 7.79465 20.2143 7.4029 20.3526 6.86842C20.1662 6.92296 19.9717 6.96669 19.7738 7.00058C19.1928 7.10009 18.542 7.12184 17.8975 7.06121C17.8328 7.05513 17.7699 7.03651 17.7124 7.00639C16.7655 6.51066 15.4027 6.13428 14.3035 6.45372C13.7736 6.60769 13.2934 6.92531 12.9268 7.50089C12.554 8.08632 12.2801 8.969 12.2349 10.276C12.23 10.4171 12.1657 10.5495 12.0579 10.6407C11.9501 10.7318 11.8088 10.7731 11.6689 10.7543C10.5559 10.6054 8.8132 10.1564 7.15132 9.28768C5.88971 8.62821 4.64127 7.70892 3.76425 6.46498C3.63754 7.59791 3.64963 9.00447 3.97614 10.434C4.44702 12.4957 5.56438 14.5813 7.84332 15.9925C8.07393 16.1354 8.14862 16.436 8.01166 16.6701C7.71809 17.172 6.79262 18.0339 5.19572 18.2628C4.92237 18.302 4.66902 18.1122 4.62984 17.8388C4.59065 17.5655 4.78048 17.3121 5.05383 17.2729C5.91887 17.1489 6.49682 16.8044 6.82781 16.5197C4.59978 14.9508 3.48317 12.7667 3.00125 10.6567C2.48778 8.4086 2.68744 6.2211 3.03529 4.87491C3.08901 4.66701 3.26948 4.51662 3.48366 4.50128Z" fill="black"/>
</svg>
